<?xml version="1.0" encoding="UTF-8" standalone="no"?><!DOCTYPE svg PUBLIC "-//W3C//DTD SVG 1.1//EN" "http://www.w3.org/Graphics/SVG/1.1/DTD/svg11.dtd"><svg width="100%" height="100%" viewBox="0 0 1024 1024" version="1.1" xmlns="http://www.w3.org/2000/svg" xmlns:xlink="http://www.w3.org/1999/xlink" xml:space="preserve" xmlns:serif="http://www.serif.com/" style="fill-rule:evenodd;clip-rule:evenodd;stroke-linejoin:round;stroke-miterlimit:2;"><rect id="アートボード1" x="0" y="0" width="1024" height="1024" style="fill:none;"/><g id="アートボード11" serif:id="アートボード1"><g><path d="M529.002,1018.952c-10.082,6.729 -23.222,6.731 -33.305,0.003c-68.596,-45.766 -328.571,-219.217 -390.604,-260.605c-8.341,-5.565 -13.35,-14.929 -13.35,-24.956c-0,-32.738 -0,-108.59 -0,-161.455c-0,-11.066 6.092,-21.233 15.849,-26.453c9.757,-5.22 21.596,-4.644 30.801,1.497c92.98,62.035 297.587,198.545 357.294,238.381c10.088,6.731 23.236,6.726 33.319,-0.013c59.612,-39.838 263.723,-176.245 356.583,-238.303c9.204,-6.151 21.047,-6.733 30.81,-1.515c9.763,5.218 15.859,15.388 15.859,26.458l-0,161.748c-0,10.025 -5.007,19.387 -13.345,24.952c-61.953,41.353 -321.397,214.527 -389.911,260.259Z" style="fill:#92d835;"/><clipPath id="_clip1"><path d="M529.002,1018.952c-10.082,6.729 -23.222,6.731 -33.305,0.003c-68.596,-45.766 -328.571,-219.217 -390.604,-260.605c-8.341,-5.565 -13.35,-14.929 -13.35,-24.956c-0,-32.738 -0,-108.59 -0,-161.455c-0,-11.066 6.092,-21.233 15.849,-26.453c9.757,-5.22 21.596,-4.644 30.801,1.497c92.98,62.035 297.587,198.545 357.294,238.381c10.088,6.731 23.236,6.726 33.319,-0.013c59.612,-39.838 263.723,-176.245 356.583,-238.303c9.204,-6.151 21.047,-6.733 30.81,-1.515c9.763,5.218 15.859,15.388 15.859,26.458l-0,161.748c-0,10.025 -5.007,19.387 -13.345,24.952c-61.953,41.353 -321.397,214.527 -389.911,260.259Z"/></clipPath><g clip-path="url(#_clip1)"><path d="M932.958,551.328l0,196.979l-420.608,281.759l0,-172.96c-0,-15.01 7.484,-29.033 19.955,-37.387c83.514,-55.945 400.653,-268.392 400.653,-268.392Z" style="fill:#ffcb0a;"/></g><path d="M145.679,519.534c-12.471,-8.354 -19.955,-22.376 -19.955,-37.387l-0,-143.244c-0,-15.079 7.552,-29.155 20.116,-37.494c19.001,-12.611 47.558,-31.563 68.001,-45.131c15.113,-10.03 34.77,-10.006 49.859,0.06c51.874,34.61 170.978,114.074 222.953,148.75c15.147,10.106 34.892,10.087 50.02,-0.047c51.909,-34.773 170.866,-114.461 222.714,-149.193c15.093,-10.11 34.784,-10.154 49.922,-0.112c20.671,13.713 49.647,32.937 68.845,45.673c12.568,8.338 20.123,22.417 20.123,37.498c-0,36.802 -0,106.514 -0,143.238c0,15.01 -7.484,29.033 -19.955,37.387c-64.857,43.447 -269.634,180.624 -341.276,228.616c-15.154,10.151 -34.936,10.151 -50.09,0c-71.642,-47.992 -276.419,-185.169 -341.276,-228.616Z" style="fill:#00cde5;"/><clipPath id="_clip2"><path d="M145.679,519.534c-12.471,-8.354 -19.955,-22.376 -19.955,-37.387l-0,-143.244c-0,-15.079 7.552,-29.155 20.116,-37.494c19.001,-12.611 47.558,-31.563 68.001,-45.131c15.113,-10.03 34.77,-10.006 49.859,0.06c51.874,34.61 170.978,114.074 222.953,148.75c15.147,10.106 34.892,10.087 50.02,-0.047c51.909,-34.773 170.866,-114.461 222.714,-149.193c15.093,-10.11 34.784,-10.154 49.922,-0.112c20.671,13.713 49.647,32.937 68.845,45.673c12.568,8.338 20.123,22.417 20.123,37.498c-0,36.802 -0,106.514 -0,143.238c0,15.01 -7.484,29.033 -19.955,37.387c-64.857,43.447 -269.634,180.624 -341.276,228.616c-15.154,10.151 -34.936,10.151 -50.09,0c-71.642,-47.992 -276.419,-185.169 -341.276,-228.616Z"/></clipPath><g clip-path="url(#_clip2)"><path d="M512,570.781l0,193.103l-386.276,-257.717l-0,-193.103l386.276,257.717Z" style="fill:#00cde5;"/><path d="M898.276,313.064l0,193.103l-386.276,258.761l0,-193.103l386.276,-258.761Z" style="fill:#12b6bf;"/><path d="M511.357,573.092l-385.633,-257.288l113.066,-76.084l272.887,182.066l272.632,-182.633l113.322,75.607l-385.633,258.33l0,0.431l-0.322,-0.215l-0.321,0.215l0,-0.429Z" style="fill:#1bb9f7;"/></g><path d="M677.67,164.029c9.146,0.904 16.117,8.597 16.117,17.788c0.031,0.244 0.031,0.489 0.031,0.733c-0,8.822 -6.711,16.196 -15.494,17.024c-78.391,7.294 -140.907,69.614 -148.535,147.914c-0.904,9.146 -8.597,16.117 -17.788,16.117c-0.244,0.031 -0.489,0.031 -0.733,0.031c-8.822,-0 -16.196,-6.711 -17.024,-15.494c-7.294,-78.391 -69.614,-140.907 -147.914,-148.535c-9.146,-0.904 -16.117,-8.597 -16.117,-17.788c-0.031,-0.244 -0.031,-0.489 -0.031,-0.733c0,-8.822 6.711,-16.196 15.494,-17.024c78.391,-7.294 140.907,-69.614 148.535,-147.914c0.904,-9.146 8.597,-16.117 17.788,-16.117c0.244,-0.031 0.489,-0.031 0.733,-0.031c8.822,0 16.196,6.711 17.024,15.494c7.294,78.391 69.614,140.907 147.914,148.535Z" style="fill:#ffcb0a;"/></g></g></svg>