<?xml version="1.0" encoding="UTF-8" standalone="no"?><!DOCTYPE svg PUBLIC "-//W3C//DTD SVG 1.1//EN" "http://www.w3.org/Graphics/SVG/1.1/DTD/svg11.dtd"><svg width="100%" height="100%" viewBox="0 0 3491 1024" version="1.1" xmlns="http://www.w3.org/2000/svg" xmlns:xlink="http://www.w3.org/1999/xlink" xml:space="preserve" xmlns:serif="http://www.serif.com/" style="fill-rule:evenodd;clip-rule:evenodd;stroke-linejoin:round;stroke-miterlimit:2;"><rect id="アートボード3" x="0" y="0" width="3490.93" height="1024" style="fill:none;"/><clipPath id="_clip1"><rect x="0" y="0" width="3490.93" height="1024"/></clipPath><g clip-path="url(#_clip1)"><g><path d="M437.259,1018.952c-10.082,6.729 -23.222,6.731 -33.305,0.003c-68.596,-45.766 -328.571,-219.217 -390.604,-260.605c-8.341,-5.565 -13.35,-14.929 -13.35,-24.956c-0,-32.738 -0,-108.59 -0,-161.455c-0,-11.066 6.092,-21.233 15.849,-26.453c9.757,-5.22 21.596,-4.644 30.801,1.497c92.98,62.035 297.587,198.545 357.294,238.381c10.088,6.731 23.236,6.726 33.319,-0.013c59.612,-39.838 263.723,-176.245 356.583,-238.303c9.204,-6.151 21.047,-6.733 30.81,-1.515c9.763,5.218 15.859,15.388 15.859,26.458l0,161.748c-0,10.025 -5.007,19.387 -13.345,24.952c-61.953,41.353 -321.397,214.527 -389.911,260.259Z" style="fill:#92d835;"/><clipPath id="_clip2"><path d="M437.259,1018.952c-10.082,6.729 -23.222,6.731 -33.305,0.003c-68.596,-45.766 -328.571,-219.217 -390.604,-260.605c-8.341,-5.565 -13.35,-14.929 -13.35,-24.956c-0,-32.738 -0,-108.59 -0,-161.455c-0,-11.066 6.092,-21.233 15.849,-26.453c9.757,-5.22 21.596,-4.644 30.801,1.497c92.98,62.035 297.587,198.545 357.294,238.381c10.088,6.731 23.236,6.726 33.319,-0.013c59.612,-39.838 263.723,-176.245 356.583,-238.303c9.204,-6.151 21.047,-6.733 30.81,-1.515c9.763,5.218 15.859,15.388 15.859,26.458l0,161.748c-0,10.025 -5.007,19.387 -13.345,24.952c-61.953,41.353 -321.397,214.527 -389.911,260.259Z"/></clipPath><g clip-path="url(#_clip2)"><path d="M841.216,551.328l0,196.979l-420.608,281.759l0,-172.96c-0,-15.01 7.484,-29.033 19.955,-37.387c83.514,-55.945 400.653,-268.392 400.653,-268.392Z" style="fill:#ffcb0a;"/></g><path d="M53.937,519.534c-12.471,-8.354 -19.955,-22.376 -19.955,-37.387l-0,-143.244c-0,-15.079 7.552,-29.155 20.116,-37.494c19.001,-12.611 47.558,-31.563 68.001,-45.131c15.113,-10.03 34.77,-10.006 49.859,0.06c51.874,34.61 170.978,114.074 222.953,148.75c15.147,10.106 34.892,10.087 50.02,-0.047c51.909,-34.773 170.866,-114.461 222.714,-149.193c15.093,-10.11 34.784,-10.154 49.922,-0.112c20.671,13.713 49.647,32.937 68.845,45.673c12.568,8.338 20.123,22.417 20.123,37.498c-0,36.802 -0,106.514 -0,143.238c0,15.01 -7.484,29.033 -19.955,37.387c-64.857,43.447 -269.634,180.624 -341.276,228.616c-15.154,10.151 -34.936,10.151 -50.09,-0c-71.642,-47.992 -276.419,-185.169 -341.276,-228.616Z" style="fill:#00cde5;"/><clipPath id="_clip3"><path d="M53.937,519.534c-12.471,-8.354 -19.955,-22.376 -19.955,-37.387l-0,-143.244c-0,-15.079 7.552,-29.155 20.116,-37.494c19.001,-12.611 47.558,-31.563 68.001,-45.131c15.113,-10.03 34.77,-10.006 49.859,0.06c51.874,34.61 170.978,114.074 222.953,148.75c15.147,10.106 34.892,10.087 50.02,-0.047c51.909,-34.773 170.866,-114.461 222.714,-149.193c15.093,-10.11 34.784,-10.154 49.922,-0.112c20.671,13.713 49.647,32.937 68.845,45.673c12.568,8.338 20.123,22.417 20.123,37.498c-0,36.802 -0,106.514 -0,143.238c0,15.01 -7.484,29.033 -19.955,37.387c-64.857,43.447 -269.634,180.624 -341.276,228.616c-15.154,10.151 -34.936,10.151 -50.09,-0c-71.642,-47.992 -276.419,-185.169 -341.276,-228.616Z"/></clipPath><g clip-path="url(#_clip3)"><path d="M420.258,570.781l0,193.103l-386.276,-257.717l0,-193.103l386.276,257.717Z" style="fill:#00cde5;"/><path d="M806.534,313.064l0,193.103l-386.276,258.761l0,-193.103l386.276,-258.761Z" style="fill:#12b6bf;"/><path d="M419.615,573.092l-385.633,-257.288l113.066,-76.084l272.887,182.066l272.632,-182.633l113.322,75.607l-385.633,258.33l0,0.431l-0.322,-0.215l-0.321,0.215l0,-0.429Z" style="fill:#1bb9f7;"/></g><path d="M585.928,164.029c9.146,0.904 16.117,8.597 16.117,17.788c0.031,0.244 0.031,0.489 0.031,0.733c-0,8.822 -6.711,16.196 -15.494,17.024c-78.391,7.294 -140.907,69.614 -148.535,147.914c-0.904,9.146 -8.597,16.117 -17.788,16.117c-0.244,0.031 -0.489,0.031 -0.733,0.031c-8.822,-0 -16.196,-6.711 -17.024,-15.494c-7.294,-78.391 -69.614,-140.907 -147.914,-148.535c-9.146,-0.904 -16.117,-8.597 -16.117,-17.788c-0.031,-0.244 -0.031,-0.489 -0.031,-0.733c0,-8.822 6.711,-16.196 15.494,-17.024c78.391,-7.294 140.907,-69.614 148.535,-147.914c0.904,-9.146 8.597,-16.117 17.788,-16.117c0.244,-0.031 0.489,-0.031 0.733,-0.031c8.822,0 16.196,6.711 17.024,15.494c7.294,78.391 69.614,140.907 147.914,148.535Z" style="fill:#ffcb0a;"/></g><g><g><path d="M1243.321,353.423c0,0 184.614,0.318 200.529,0.955c11.459,0 18.461,-6.694 18.461,-17.526l-0.637,-57.99c0,-10.196 -7.003,-15.925 -17.188,-15.288c-16.552,0.637 -201.166,0 -201.166,0c-9.549,0 -15.915,-5.103 -15.915,-14.662l0,-57.344c0,-9.559 6.366,-15.298 15.915,-15.298c0,0 146.418,-0.637 158.514,0c10.186,0.637 16.552,-5.103 16.552,-15.298l0,-56.707c0,-10.832 -7.003,-16.89 -17.825,-16.253c-12.095,0.637 -362.863,1.273 -376.231,0c-10.186,-0.637 -17.188,5.421 -17.188,15.617l0,56.707c0,10.196 7.003,16.572 17.188,15.935c13.369,-0.637 86.578,0 86.578,0c9.549,0 15.915,5.739 15.915,15.298l0,57.344c0,9.559 -6.366,14.662 -15.915,14.662c0,0 -108.859,1.273 -126.684,0c-10.186,-0.637 -17.188,4.456 -17.188,14.652l0,61.173c0,10.196 7.003,15.617 17.188,14.98c18.461,-0.637 126.684,0 126.684,0c9.549,0 15.915,5.421 15.915,14.97l0,89.86c0,67.539 26.101,108.968 147.691,108.968c49.655,0 113.315,1.91 151.511,0c8.276,-0.637 19.098,-4.778 19.098,-13.064l0,-66.913c0.637,-11.469 -6.366,-16.25 -17.825,-14.977c-42.016,3.83 -89.761,0 -134.959,0c-44.562,0 -64.933,-8.922 -64.933,-43.329l0,-60.547c0,-9.549 6.366,-15.925 15.915,-15.925Z" style="fill:#1bb9f7;fill-rule:nonzero;"/><path d="M1614.36,87.965c37.171,27.242 90.516,70.146 124.811,103.592c1.548,1.509 13.561,16.799 1.802,28.942c-8.378,8.652 -33.778,34.856 -43.037,44.115c-11.159,11.159 -34.147,2.407 -36.351,0.225c-30.923,-30.611 -78.183,-71.301 -114.04,-99.334c-1.699,-1.328 -18.129,-17.769 -3.325,-32.573c9.385,-9.385 30.463,-32.177 38.161,-40.806c10.41,-11.669 30.058,-5.568 31.978,-4.161Zm298.145,300.222c-26.391,30.071 -54.679,56.769 -84.298,76.256c-68.767,45.244 -157.384,86.122 -225.674,100.272c-4.935,1.023 -13.114,3.693 -18.997,1.816c-5.883,-1.876 -16.3,-13.075 -16.3,-13.075l-38.714,-59.841c-3.613,-11.4 0.675,-21.015 11.459,-24.847c78.939,-13.389 147.691,-38.872 201.166,-70.106c97.4,-56.071 173.155,-177.603 216.444,-255.348c9.549,-5.914 20.371,-7.877 29.92,0c0,0 39.794,30.477 46.015,44.978c4.813,11.219 1.326,24.48 0.356,26.116c-0.779,1.314 -1.566,2.636 -2.361,3.967c-31.673,53.014 -72.385,116.678 -119.018,169.812Z" style="fill:#00cde5;"/><path d="M2484.326,409.547c-26.391,28.576 -54.679,53.947 -84.298,72.466c-68.767,42.995 -157.384,81.841 -225.674,95.287c-4.935,0.972 -13.114,3.509 -18.997,1.726c-5.883,-1.783 -16.3,-12.425 -16.3,-12.425l-38.714,-56.866c-3.613,-10.833 0.675,-19.97 11.459,-23.612c78.939,-12.723 147.691,-36.94 201.166,-66.621c97.4,-53.283 173.155,-168.775 216.444,-242.655c9.549,-5.62 20.371,-7.486 29.92,0c0,0 39.794,28.962 46.015,42.742c4.813,10.661 1.326,23.263 0.356,24.818c-0.779,1.248 -1.566,2.505 -2.361,3.77c-31.673,50.379 -72.385,110.877 -119.018,161.371Z" style="fill:#92d835;"/><path d="M2504.514,1.473l-32.244,-1.453c-11.695,-0.455 -18.569,6.91 -16.448,19.096c3.398,24.685 4.336,44.041 5.031,73.1c0.022,9.124 6.221,15.464 15.071,16.016l36.202,0.454c9.693,0.238 16.303,-6.548 15.967,-16.516c-1.662,-23.889 -4.623,-52.586 -8.601,-77.536c-0.818,-7.387 -7.282,-13.149 -14.978,-13.162Z" style="fill:#ffcb0a;fill-rule:nonzero;"/><path d="M2607.648,1.473l-32.244,-1.453c-11.695,-0.455 -18.569,6.91 -16.448,19.096c3.398,24.685 4.336,44.041 5.031,73.1c0.022,9.124 6.221,15.464 15.071,16.016l36.202,0.454c9.693,0.238 16.303,-6.548 15.967,-16.516c-1.662,-23.889 -4.623,-52.586 -8.601,-77.536c-0.818,-7.387 -7.282,-13.149 -14.978,-13.162Z" style="fill:#ffcb0a;fill-rule:nonzero;"/><path d="M2161.748,285.719c-20.758,-10.183 -41.964,-20.152 -61.057,-28.281c-9.416,-4.099 -12.922,-12.69 -8.202,-22.184l29.52,-57.731c4.296,-7.527 12.244,-10.962 20.325,-7.367c17.595,7.343 37.458,16.268 57.077,25.454c23.789,11.138 47.22,22.66 65.818,32.21c8.15,4.228 11.023,12.888 6.796,21.048l-29.944,59.699c-4.157,8.792 -12.807,11.674 -21.66,6.873c-17.369,-9.02 -37.795,-19.478 -58.673,-29.72Z" style="fill:#92d835;"/><path d="M2215.699,153.217c-17.71,-8.489 -35.447,-16.782 -51.453,-23.996c-10.049,-4.029 -12.922,-12.69 -8.202,-22.184l29.52,-57.731c4.296,-7.527 12.244,-10.962 20.325,-7.367c16.855,7.176 35.996,15.964 55.093,25.035c24.294,11.54 48.517,23.538 67.872,33.261c8.15,4.228 10.39,12.958 6.233,21.75l-30.153,57.8c-4.157,8.792 -12.877,11.032 -21.66,6.873c-19.542,-10.034 -43.534,-21.918 -67.575,-33.441Z" style="fill:#92d835;"/><path d="M2806.777,485.825l0,-121.601c0,-7.862 5.228,-13.099 13.069,-13.099l36.824,0c7.841,0 17.251,0.524 26.661,1.047c8.364,0.524 14.115,-4.721 14.115,-13.107l0,-45.072c0,-9.433 -6.273,-14.678 -15.16,-14.154c-8.887,1.047 -18.297,1.047 -25.615,1.047l-189.965,0c-7.841,0 -17.774,0 -26.661,-1.047c-9.41,-0.524 -15.683,4.721 -15.683,14.154l0,45.072c0,8.386 5.75,13.63 14.115,13.107c9.41,-0.524 20.388,-1.047 28.229,-1.047l37.973,0c7.841,0 13.069,5.236 13.069,13.099l0,121.601c0,7.862 -5.228,13.107 -13.069,13.107l-75.375,0c-8.887,0 -18.819,-0.524 -28.752,-1.571c-8.887,-1.047 -15.16,4.189 -15.16,13.099l0,48.222c0,8.91 5.75,14.154 15.16,13.63c9.932,-1.047 19.865,-1.047 28.752,-1.047l273.928,0c5.75,0 15.683,0 24.57,1.047c9.41,0.524 15.683,-4.721 15.683,-14.154l0,-47.698c0,-8.91 -5.75,-14.146 -15.16,-13.099c-7.841,1.047 -16.728,1.571 -25.093,1.571l-83.385,0c-7.841,0 -13.069,-5.244 -13.069,-13.107Z" style="fill:#ffcb0a;fill-rule:nonzero;"/><path d="M3457.755,408.822c-35.786,-35.828 -82.289,-70.697 -128.761,-96.181c-12.732,-6.376 -14.005,-17.208 -3.183,-26.13c20.371,-18.481 39.469,-36.963 56.021,-53.524c12.732,-12.115 33.176,-27.676 32.932,-59.824c-0.062,-8.16 -9.624,-43.837 -31.652,-46.435c-15.436,-1.82 -32.473,-2.709 -49.662,-2.709l-61.75,0c-7.003,0 -11.459,-4.466 -11.459,-11.469l0,-10.842c0,-13.379 1.273,-28.667 2.546,-42.055c0.637,-10.196 -5.729,-17.208 -15.915,-17.208l-68.116,0c-10.822,0 -17.188,7.649 -16.552,18.481c1.273,12.752 1.91,27.404 1.91,40.782l0,10.842c0,7.003 -4.456,11.469 -10.822,11.469l-80.212,0c-16.552,0 -40.106,-0.637 -61.75,-1.92c-10.822,-0.637 -17.825,5.103 -17.825,15.935l0,59.264c0,10.832 7.003,17.208 17.825,16.572c20.371,-1.273 47.108,-1.91 63.66,-1.91l166.153,0c21.644,0 16.663,18.707 9.549,24.847c-18.461,15.935 -43.925,35.053 -70.026,50.978c-54.748,33.143 -117.325,64.929 -213.452,93.606c-12.095,3.183 -15.278,12.742 -8.912,23.574l35.65,61.183c4.456,7.003 12.095,9.559 19.735,7.003c43.925,-17.198 79.129,-34.979 126.237,-58.553c14.005,-7.649 23.554,-1.91 23.554,14.015l0,68.186c0,17.845 -1.273,44.612 -3.183,64.366c-0.637,10.832 5.729,18.481 16.552,18.481l68.753,0c10.822,0 17.188,-7.013 16.552,-17.845c-1.91,-19.755 -3.183,-46.522 -3.183,-65.003l0,-92.397c0,-16.572 9.549,-22.301 23.554,-13.379c43.925,25.484 84.273,59.575 115.392,96.181c7.639,6.376 16.552,5.739 22.918,-2.546l40.742,-52.888c6.366,-8.286 4.456,-17.208 -3.82,-22.947Z" style="fill:#ffcb0a;fill-rule:nonzero;"/></g><g><path d="M1516.589,890.533l-42.338,-168.272l-11.093,182.325c0,10.089 -2.252,17.656 -6.756,22.701c-4.504,5.045 -10.479,7.567 -17.926,7.567c-7.207,0 -13.092,-2.492 -17.656,-7.477c-4.564,-4.985 -6.846,-12.581 -6.846,-22.791l11.093,-208.989c0,-11.53 3.003,-19.307 9.008,-23.331c6.005,-4.024 14.113,-6.035 24.322,-6.035l16.575,0c9.969,0 17.206,0.901 21.71,2.702c4.504,1.802 7.837,5.045 9.999,9.729c2.162,4.684 4.624,12.311 7.387,22.881l38.375,144.671l38.375,-144.671c2.762,-10.57 5.225,-18.196 7.387,-22.881c2.162,-4.684 5.495,-7.927 9.999,-9.729c4.504,-1.802 11.741,-2.702 21.71,-2.702l16.575,0c10.209,0 18.317,2.012 24.322,6.035c6.005,4.024 9.008,11.801 9.008,23.331l11.706,208.989c0,10.089 -2.252,17.656 -6.756,22.701c-4.504,5.045 -10.54,7.567 -18.106,7.567c-7.086,0 -12.912,-2.522 -17.476,-7.567c-4.564,-5.045 -6.846,-12.611 -6.846,-22.701l-11.706,-182.325l-42.338,168.272c-2.762,10.93 -5.015,18.947 -6.756,24.052c-1.742,5.105 -4.954,9.759 -9.639,13.963c-4.684,4.204 -11.17,6.306 -19.458,6.306c-6.246,0 -11.53,-1.351 -15.854,-4.054c-4.324,-2.702 -7.687,-6.156 -10.089,-10.359c-2.402,-4.204 -4.294,-8.858 -5.675,-13.963c-1.381,-5.105 -2.793,-10.419 -4.234,-15.944Z" style="fill:#004854;fill-rule:nonzero;"/><path d="M1817.551,736.385c55.545,0 100.64,45.095 100.64,100.64c0,55.545 -45.095,100.64 -100.64,100.64c-55.545,0 -100.64,-45.095 -100.64,-100.64c0,-55.545 45.095,-100.64 100.64,-100.64Zm0,43.772c-27.563,0 -49.94,24.513 -49.94,54.706c0,30.193 22.377,54.706 49.94,54.706c27.563,0 49.94,-24.513 49.94,-54.706c0,-30.193 -22.377,-54.706 -49.94,-54.706Z" style="fill:#004854;"/><path d="M1986.654,740.194c2.865,-0 5.553,1.386 7.215,3.72c0.641,1.015 1.279,2.073 1.864,3.209c2.102,4.084 3.153,9.068 3.153,14.954l0,5.945c8.648,-11.41 18.106,-19.788 28.376,-25.133c10.269,-5.345 22.07,-8.017 35.402,-8.017c12.972,0 24.562,2.823 34.771,8.468c10.209,5.645 17.836,13.632 22.881,23.962c3.243,6.005 5.345,12.491 6.306,19.458c0.961,6.966 1.441,15.854 1.441,26.664l0,91.523c0,9.849 -2.252,17.296 -6.756,22.34c-4.504,5.045 -10.359,7.567 -17.566,7.567c-7.327,0 -13.272,-2.582 -17.836,-7.747c-4.564,-5.165 -6.846,-12.551 -6.846,-22.16l0,-81.974c0,-16.215 -2.252,-28.616 -6.756,-37.204c-4.504,-8.588 -13.482,-12.882 -26.934,-12.882c-8.768,0 -16.755,2.612 -23.962,7.837c-7.207,5.225 -12.491,12.401 -15.854,21.529c-2.402,7.327 -3.603,21.019 -3.603,41.077l0,61.616c0,9.969 -2.312,17.446 -6.936,22.43c-4.624,4.985 -10.6,7.477 -17.926,7.477c-7.086,0 -12.912,-2.582 -17.476,-7.747c-4.564,-5.165 -6.846,-12.551 -6.846,-22.16l0,-142.148c0,-9.368 2.042,-16.365 6.126,-20.989c0.199,-0.225 0.401,-0.445 0.607,-0.659c0.584,-0.609 1.392,-0.954 2.236,-0.954c4.235,-0.002 18.124,-0.002 24.921,-0.002Z" style="fill:#004854;"/><path d="M2348.131,740.194c1.665,-0 3.221,0.83 4.147,2.214c0.345,0.561 0.682,1.137 0.988,1.743c3.123,6.186 4.684,15.104 4.684,26.754l0,142.869c0,16.335 -1.65,44.079 -5.133,55.85c-3.483,11.771 -9.068,21.499 -16.755,29.186c-7.687,7.687 -17.746,13.392 -30.177,17.115c-12.431,3.723 -27.895,8.074 -46.392,8.074c-16.935,0 -32.069,-4.861 -45.401,-9.606c-13.332,-4.744 -20.415,-9.644 -27.622,-17.151c-7.207,-7.507 -9.994,-16.449 -9.994,-24.376c0,-6.005 2.042,-10.9 6.126,-14.683c4.084,-3.783 9.008,-5.675 14.773,-5.675c7.207,0 13.512,3.183 18.917,9.549c2.642,3.243 1.373,6.516 4.195,9.819c2.823,3.303 5.945,6.126 9.368,8.468c3.423,2.342 7.537,4.084 12.341,5.225c4.804,1.141 16.575,1.712 16.575,1.712c0,0 22.61,-1.772 29.637,-5.315c7.026,-3.543 11.951,-8.498 14.773,-14.863c2.823,-6.366 4.474,-13.182 4.954,-20.448c0.48,-7.267 0.749,-32.639 0.99,-48.734c-7.567,10.57 -16.305,18.617 -26.214,24.142c-9.909,5.525 -21.71,8.287 -35.402,8.287c-16.455,0 -30.838,-4.204 -43.149,-12.611c-12.311,-8.408 -21.77,-20.178 -28.376,-35.312c-6.606,-15.134 -9.909,-32.609 -9.909,-52.427c0,-14.773 2.012,-28.105 6.035,-39.996c4.024,-11.891 9.759,-21.92 17.206,-30.087c7.447,-8.167 16.034,-14.323 25.763,-18.467c9.729,-4.144 20.418,-6.216 32.069,-6.216c13.933,0 26.003,2.672 36.213,8.017c10.209,5.345 19.698,13.722 28.466,25.133l0,-6.666c0,-8.528 2.102,-15.134 6.306,-19.818c0.238,-0.266 0.481,-0.524 0.727,-0.775c0.583,-0.594 1.379,-0.928 2.211,-0.928c4.637,-0.002 20.981,-0.002 27.059,-0.002Zm-132.69,93.047c0,19.938 4.354,35.012 13.062,45.221c8.708,10.209 19.968,15.314 33.781,15.314c8.167,0 15.884,-2.192 23.151,-6.576c7.267,-4.384 13.182,-10.99 17.746,-19.818c4.564,-8.828 6.846,-19.548 6.846,-32.159c0,-20.058 -4.414,-35.672 -13.242,-46.842c-8.828,-11.17 -20.448,-16.755 -34.862,-16.755c-14.053,0 -25.313,5.345 -33.781,16.034c-8.468,10.69 -12.701,25.883 -12.701,45.581Z" style="fill:#004854;"/><path d="M2535.77,846.934l-96.207,0c0.12,11.17 2.372,21.019 6.756,29.547c4.384,8.528 10.209,14.954 17.476,19.277c7.267,4.324 15.284,6.486 24.052,6.486c5.885,0 11.26,-0.691 16.125,-2.072c4.864,-1.381 9.579,-3.543 14.143,-6.486c4.564,-2.943 8.768,-6.096 12.611,-9.459c3.843,-3.363 8.828,-7.927 14.954,-13.692c2.522,-2.162 6.126,-3.243 10.81,-3.243c5.045,0 9.128,1.381 12.251,4.144c3.123,2.762 4.684,6.666 4.684,11.711c0,4.444 -1.742,9.639 -5.225,15.584c-3.483,5.945 -8.738,11.651 -15.764,17.115c-7.026,5.465 -15.854,9.999 -26.484,13.602c-10.63,3.603 -22.851,5.405 -36.663,5.405c-31.589,0 -56.151,-9.008 -73.687,-27.024c-17.536,-18.016 -26.304,-42.458 -26.304,-73.326c0,-14.533 2.162,-28.015 6.486,-40.447c4.324,-12.431 10.63,-23.091 18.917,-31.979c8.287,-8.888 18.497,-15.704 30.628,-20.448c12.131,-4.744 25.583,-7.116 40.356,-7.116c19.217,0 35.702,4.054 49.455,12.161c13.752,8.107 24.052,18.587 30.898,31.438c6.846,12.852 10.269,25.943 10.269,39.275c0,12.371 -3.543,20.388 -10.63,24.052c-7.086,3.663 -17.055,5.495 -29.907,5.495Zm-96.207,-27.925l89.181,0c-1.201,-16.815 -5.735,-29.397 -13.602,-37.744c-7.867,-8.348 -18.226,-12.521 -31.078,-12.521c-12.251,0 -22.31,4.234 -30.177,12.701c-7.867,8.468 -12.641,20.989 -14.323,37.564Z" style="fill:#004854;fill-rule:nonzero;"/><path d="M2650.193,740.194c2.865,-0 5.553,1.386 7.215,3.72c0.641,1.015 1.279,2.073 1.864,3.209c2.102,4.084 3.153,9.068 3.153,14.954l0,5.945c8.648,-11.41 18.106,-19.788 28.376,-25.133c10.269,-5.345 22.07,-8.017 35.402,-8.017c12.972,0 24.562,2.823 34.771,8.468c10.209,5.645 17.836,13.632 22.881,23.962c3.243,6.005 5.345,12.491 6.306,19.458c0.961,6.966 1.441,15.854 1.441,26.664l0,91.523c0,9.849 -2.252,17.296 -6.756,22.34c-4.504,5.045 -10.359,7.567 -17.566,7.567c-7.327,0 -13.272,-2.582 -17.836,-7.747c-4.564,-5.165 -6.846,-12.551 -6.846,-22.16l0,-81.974c0,-16.215 -2.252,-28.616 -6.756,-37.204c-4.504,-8.588 -13.482,-12.882 -26.934,-12.882c-8.768,0 -16.755,2.612 -23.962,7.837c-7.207,5.225 -12.491,12.401 -15.854,21.529c-2.402,7.327 -3.603,21.019 -3.603,41.077l0,61.616c0,9.969 -2.312,17.446 -6.936,22.43c-4.624,4.985 -10.6,7.477 -17.926,7.477c-7.086,0 -12.912,-2.582 -17.476,-7.747c-4.564,-5.165 -6.846,-12.551 -6.846,-22.16l0,-142.148c0,-9.368 2.042,-16.365 6.126,-20.989c0.199,-0.225 0.401,-0.445 0.607,-0.659c0.584,-0.609 1.392,-0.954 2.236,-0.954c4.235,-0.002 18.124,-0.002 24.921,-0.002Z" style="fill:#004854;"/><path d="M2977.89,846.934l-96.207,0c0.12,11.17 2.372,21.019 6.756,29.547c4.384,8.528 10.209,14.954 17.476,19.277c7.267,4.324 15.284,6.486 24.052,6.486c5.885,0 11.26,-0.691 16.125,-2.072c4.864,-1.381 9.579,-3.543 14.143,-6.486c4.564,-2.943 8.768,-6.096 12.611,-9.459c3.843,-3.363 8.828,-7.927 14.954,-13.692c2.522,-2.162 6.126,-3.243 10.81,-3.243c5.045,0 9.128,1.381 12.251,4.144c3.123,2.762 4.684,6.666 4.684,11.711c0,4.444 -1.742,9.639 -5.225,15.584c-3.483,5.945 -8.738,11.651 -15.764,17.115c-7.026,5.465 -15.854,9.999 -26.484,13.602c-10.63,3.603 -22.851,5.405 -36.663,5.405c-31.589,0 -56.151,-9.008 -73.687,-27.024c-17.536,-18.016 -26.304,-42.458 -26.304,-73.326c0,-14.533 2.162,-28.015 6.486,-40.447c4.324,-12.431 10.63,-23.091 18.917,-31.979c8.287,-8.888 18.497,-15.704 30.628,-20.448c12.131,-4.744 25.583,-7.116 40.356,-7.116c19.217,0 35.702,4.054 49.455,12.161c13.752,8.107 24.052,18.587 30.898,31.438c6.846,12.852 10.269,25.943 10.269,39.275c0,12.371 -3.543,20.388 -10.63,24.052c-7.086,3.663 -17.055,5.495 -29.907,5.495Zm-96.207,-27.925l89.181,0c-1.201,-16.815 -5.735,-29.397 -13.602,-37.744c-7.867,-8.348 -18.226,-12.521 -31.078,-12.521c-12.251,0 -22.31,4.234 -30.177,12.701c-7.867,8.468 -12.641,20.989 -14.323,37.564Z" style="fill:#004854;fill-rule:nonzero;"/></g></g></g></svg>